<?xml version="1.0" encoding="UTF-8" standalone="no"?>
<!-- Created with Inkscape (http://www.inkscape.org/) -->
<svg
   xmlns:svg="http://www.w3.org/2000/svg"
   xmlns="http://www.w3.org/2000/svg"
   xmlns:xlink="http://www.w3.org/1999/xlink"
   version="1.0"
   width="358.48212"
   height="354.24149"
   id="svg2">
  <defs
     id="defs5" />
  <g
     transform="translate(-11.758933,-15.879258)"
     id="layer1"
     style="display:inline" />
  <g
     transform="translate(-11.758933,-15.879258)"
     id="layer5"
     style="display:inline" />
  <g
     transform="translate(-11.758933,-15.879258)"
     id="layer4"
     style="display:inline">
    <g
       transform="translate(-6.39e-2,-7.5)"
       id="g7112" />
  </g>
  <g
     transform="translate(-11.758933,-15.879258)"
     id="layer3"
     style="display:inline">
    <g
       transform="matrix(1.098534,0,0,1.098534,-19.76332,-17.7634)"
       id="g3451">
      <g
         transform="matrix(-1,0,0,1,383.71742,0)"
         id="g2481">
        <g
           id="g3041">
          <path
             d="M 136.94661,82.065172 C 144.44103,92.876714 154.23785,92.925306 165.35798,86.787877 C 157.23565,78.911539 148.65286,73.187793 136.94661,82.065172 z"
             id="path2842"
             style="fill:#ffffff;fill-opacity:1;fill-rule:evenodd;stroke:#000000;stroke-width:2.27575874;stroke-linecap:butt;stroke-linejoin:miter;stroke-miterlimit:4;stroke-dasharray:none;stroke-opacity:1;display:inline" />
          <path
             d="M 140.29021,78.602174 C 139.42161,65.47581 147.05681,59.337116 159.5796,57.21458 C 158.12907,68.435311 154.97782,78.258512 140.29021,78.602174 z"
             id="path2844"
             style="fill:#ffffff;fill-opacity:1;fill-rule:evenodd;stroke:#000000;stroke-width:2.27575874;stroke-linecap:butt;stroke-linejoin:miter;stroke-miterlimit:4;stroke-dasharray:none;stroke-opacity:1;display:inline" />
          <path
             d="M 137.87086,80.476702 C 149.72561,86.179397 158.26949,81.385424 164.91044,70.558466 C 153.95861,67.718358 143.66896,66.977574 137.87086,80.476702 z"
             id="path4043"
             style="fill:#ffffff;fill-opacity:1;fill-rule:evenodd;stroke:#000000;stroke-width:2.27575874;stroke-linecap:butt;stroke-linejoin:miter;stroke-miterlimit:4;stroke-dasharray:none;stroke-opacity:1;display:inline" />
          <g
             id="g2807">
            <path
               d="M 101.0051,116.65842 C 108.56516,127.50556 118.25466,127.44589 129.16805,121.11753 C 121.02726,113.24483 112.46059,107.55346 101.0051,116.65842 z"
               id="path4045"
               style="fill:#ffffff;fill-opacity:1;fill-rule:evenodd;stroke:#000000;stroke-width:2.27575564;stroke-linecap:butt;stroke-linejoin:miter;stroke-miterlimit:4;stroke-dasharray:none;stroke-opacity:1;display:inline" />
            <path
               d="M 90.037113,101.64887 C 97.191363,92.419048 96.54357,82.612455 91.411578,72.474357 C 86.385062,81.861488 82.918916,91.363961 90.037113,101.64887 z"
               id="path3239"
               style="fill:#ffffff;fill-opacity:1;fill-rule:evenodd;stroke:#000000;stroke-width:2.27575541;stroke-linecap:butt;stroke-linejoin:miter;stroke-miterlimit:4;stroke-dasharray:none;stroke-opacity:1" />
            <g
               transform="matrix(0.799191,-0.106795,0.112606,0.827628,356.9685,73.12758)"
               id="g2320"
               style="display:inline">
              <path
                 d="M -252.46588,-53.832954 C -258.39999,-61.216148 -269.52176,-64.89385 -273.66312,-51.593268 C -294.80754,-58.469482 -288.53214,-40.561191 -294.73007,-17.888488 C -276.37971,-21.306526 -253.51475,-10.779668 -258.9591,-33.916927 C -246.52059,-35.103113 -247.21763,-47.303102 -252.46588,-53.832954 z"
                 id="path2291"
                 style="fill:#ffffff;fill-opacity:1;fill-rule:evenodd;stroke:#000000;stroke-width:2.77312779;stroke-linecap:butt;stroke-linejoin:miter;marker:none;marker-start:none;marker-mid:none;marker-end:none;stroke-miterlimit:4;stroke-dasharray:none;stroke-dashoffset:0;stroke-opacity:1;visibility:visible;display:inline;overflow:visible" />
              <path
                 d="M -295.82676,-17.477699 L -260.03608,-47.428073"
                 id="path2293"
                 style="fill:none;fill-opacity:1;fill-rule:evenodd;stroke:#000000;stroke-width:1.10925114px;stroke-linecap:butt;stroke-linejoin:miter;stroke-opacity:1" />
              <path
                 d="M -257.79303,-38.291421 C -261.33057,-41.172702 -264.79589,-40.778684 -268.27083,-40.821484 C -267.58413,-44.042309 -267.18055,-47.329583 -268.71345,-51.071298"
                 id="path2295"
                 style="fill:none;fill-opacity:1;fill-rule:evenodd;stroke:#000000;stroke-width:1.1092509px;stroke-linecap:butt;stroke-linejoin:miter;stroke-opacity:1" />
              <path
                 d="M -264.9581,-26.86784 C -270.21643,-31.155397 -275.36054,-30.577479 -280.51989,-30.648451 C -279.5072,-35.431402 -278.91499,-40.313671 -281.19886,-45.875108"
                 id="path2297"
                 style="fill:none;fill-opacity:1;fill-rule:evenodd;stroke:#000000;stroke-width:1.10925043px;stroke-linecap:butt;stroke-linejoin:miter;stroke-opacity:1;display:inline" />
            </g>
            <path
               d="M 130.91751,53.302181 C 119.34949,59.817944 117.03984,68.844513 120.05142,79.314177 C 129.09453,72.113682 136.28601,64.411031 130.91751,53.302181 z"
               id="path3243"
               style="fill:#ffffff;fill-opacity:1;fill-rule:evenodd;stroke:#000000;stroke-width:2.27575445;stroke-linecap:butt;stroke-linejoin:miter;stroke-miterlimit:4;stroke-dasharray:none;stroke-opacity:1;display:inline" />
            <g
               transform="matrix(0.647289,0.468566,-0.501784,0.582236,293.4209,246.7943)"
               id="g3219"
               style="display:inline">
              <path
                 d="M -252.46588,-53.832954 C -258.39999,-61.216148 -269.52176,-64.89385 -273.66312,-51.593268 C -294.80754,-58.469482 -288.53214,-40.561191 -294.73007,-17.888488 C -276.37971,-21.306526 -253.51475,-10.779668 -258.9591,-33.916927 C -246.52059,-35.103113 -247.21763,-47.303102 -252.46588,-53.832954 z"
                 id="path3221"
                 style="fill:#ffffff;fill-opacity:1;fill-rule:evenodd;stroke:#000000;stroke-width:2.90905523;stroke-linecap:butt;stroke-linejoin:miter;marker:none;marker-start:none;marker-mid:none;marker-end:none;stroke-miterlimit:4;stroke-dasharray:none;stroke-dashoffset:0;stroke-opacity:1;visibility:visible;display:inline;overflow:visible" />
              <path
                 d="M -295.82676,-17.477699 L -260.03608,-47.428073"
                 id="path3223"
                 style="fill:none;fill-opacity:1;fill-rule:evenodd;stroke:#000000;stroke-width:1.1636225px;stroke-linecap:butt;stroke-linejoin:miter;stroke-opacity:1" />
              <path
                 d="M -257.79303,-38.291421 C -261.33057,-41.172702 -264.79589,-40.778684 -268.27083,-40.821484 C -267.58413,-44.042309 -267.18055,-47.329583 -268.71345,-51.071298"
                 id="path3225"
                 style="fill:none;fill-opacity:1;fill-rule:evenodd;stroke:#000000;stroke-width:1.16362178px;stroke-linecap:butt;stroke-linejoin:miter;stroke-opacity:1" />
              <path
                 d="M -264.9581,-26.86784 C -270.21643,-31.155397 -275.36054,-30.577479 -280.51989,-30.648451 C -279.5072,-35.431402 -278.91499,-40.313671 -281.19886,-45.875108"
                 id="path3227"
                 style="fill:none;fill-opacity:1;fill-rule:evenodd;stroke:#000000;stroke-width:1.16362131px;stroke-linecap:butt;stroke-linejoin:miter;stroke-opacity:1;display:inline" />
            </g>
            <g
               transform="matrix(0.936402,-0.295657,0.329165,0.946794,380.0281,38.27591)"
               id="g3229"
               style="display:inline">
              <path
                 d="M -252.46588,-53.832954 C -258.39999,-61.216148 -269.52176,-64.89385 -273.66312,-51.593268 C -294.80754,-58.469482 -288.53214,-40.561191 -294.73007,-17.888488 C -276.37971,-21.306526 -253.51475,-10.779668 -258.9591,-33.916927 C -246.52059,-35.103113 -247.21763,-47.303102 -252.46588,-53.832954 z"
                 id="path3231"
                 style="fill:#ffffff;fill-opacity:1;fill-rule:evenodd;stroke:#000000;stroke-width:2.29429817;stroke-linecap:butt;stroke-linejoin:miter;marker:none;marker-start:none;marker-mid:none;marker-end:none;stroke-miterlimit:4;stroke-dasharray:none;stroke-dashoffset:0;stroke-opacity:1;visibility:visible;display:inline;overflow:visible" />
              <path
                 d="M -295.82676,-17.477699 L -260.03608,-47.428073"
                 id="path3233"
                 style="fill:none;fill-opacity:1;fill-rule:evenodd;stroke:#000000;stroke-width:0.91771924px;stroke-linecap:butt;stroke-linejoin:miter;stroke-opacity:1" />
              <path
                 d="M -257.79303,-38.291421 C -261.33057,-41.172702 -264.79589,-40.778684 -268.27083,-40.821484 C -267.58413,-44.042309 -267.18055,-47.329583 -268.71345,-51.071298"
                 id="path3235"
                 style="fill:none;fill-opacity:1;fill-rule:evenodd;stroke:#000000;stroke-width:0.91771907px;stroke-linecap:butt;stroke-linejoin:miter;stroke-opacity:1" />
              <path
                 d="M -264.9581,-26.86784 C -270.21643,-31.155397 -275.36054,-30.577479 -280.51989,-30.648451 C -279.5072,-35.431402 -278.91499,-40.313671 -281.19886,-45.875108"
                 id="path3237"
                 style="fill:none;fill-opacity:1;fill-rule:evenodd;stroke:#000000;stroke-width:0.91771865px;stroke-linecap:butt;stroke-linejoin:miter;stroke-opacity:1;display:inline" />
            </g>
            <g
               transform="matrix(0.636976,0.377101,-0.447186,0.523397,278.6592,229.3143)"
               id="g2326"
               style="display:inline">
              <path
                 d="M -252.46588,-53.832954 C -258.39999,-61.216148 -269.52176,-64.89385 -273.66312,-51.593268 C -294.80754,-58.469482 -288.53214,-40.561191 -294.73007,-17.888488 C -276.37971,-21.306526 -253.51475,-10.779668 -258.9591,-33.916927 C -246.52059,-35.103113 -247.21763,-47.303102 -252.46588,-53.832954 z"
                 id="path2328"
                 style="fill:#ffffff;fill-opacity:1;fill-rule:evenodd;stroke:#000000;stroke-width:3.21189928;stroke-linecap:butt;stroke-linejoin:miter;marker:none;marker-start:none;marker-mid:none;marker-end:none;stroke-miterlimit:4;stroke-dasharray:none;stroke-dashoffset:0;stroke-opacity:1;visibility:visible;display:inline;overflow:visible" />
              <path
                 d="M -295.82676,-17.477699 L -260.03608,-47.428073"
                 id="path2330"
                 style="fill:none;fill-opacity:1;fill-rule:evenodd;stroke:#000000;stroke-width:1.28475976px;stroke-linecap:butt;stroke-linejoin:miter;stroke-opacity:1" />
              <path
                 d="M -257.79303,-38.291421 C -261.33057,-41.172702 -264.79589,-40.778684 -268.27083,-40.821484 C -267.58413,-44.042309 -267.18055,-47.329583 -268.71345,-51.071298"
                 id="path2332"
                 style="fill:none;fill-opacity:1;fill-rule:evenodd;stroke:#000000;stroke-width:1.28475952px;stroke-linecap:butt;stroke-linejoin:miter;stroke-opacity:1" />
              <path
                 d="M -264.9581,-26.86784 C -270.21643,-31.155397 -275.36054,-30.577479 -280.51989,-30.648451 C -279.5072,-35.431402 -278.91499,-40.313671 -281.19886,-45.875108"
                 id="path2334"
                 style="fill:none;fill-opacity:1;fill-rule:evenodd;stroke:#000000;stroke-width:1.28475893px;stroke-linecap:butt;stroke-linejoin:miter;stroke-opacity:1;display:inline" />
            </g>
            <g
               transform="matrix(0.58348,-0.556473,0.5779,0.603058,273.4389,-28.44315)"
               id="g2777"
               style="display:inline">
              <path
                 d="M -252.46588,-53.832954 C -258.39999,-61.216148 -269.52176,-64.89385 -273.66312,-51.593268 C -294.80754,-58.469482 -288.53214,-40.561191 -294.73007,-17.888488 C -276.37971,-21.306526 -253.51475,-10.779668 -258.9591,-33.916927 C -246.52059,-35.103113 -247.21763,-47.303102 -252.46588,-53.832954 z"
                 id="path2779"
                 style="fill:#ffffff;fill-opacity:1;fill-rule:evenodd;stroke:#000000;stroke-width:2.77312779;stroke-linecap:butt;stroke-linejoin:miter;marker:none;marker-start:none;marker-mid:none;marker-end:none;stroke-miterlimit:4;stroke-dasharray:none;stroke-dashoffset:0;stroke-opacity:1;visibility:visible;display:inline;overflow:visible" />
              <path
                 d="M -295.82676,-17.477699 L -260.03608,-47.428073"
                 id="path2781"
                 style="fill:none;fill-opacity:1;fill-rule:evenodd;stroke:#000000;stroke-width:1.10925114px;stroke-linecap:butt;stroke-linejoin:miter;stroke-opacity:1" />
              <path
                 d="M -257.79303,-38.291421 C -261.33057,-41.172702 -264.79589,-40.778684 -268.27083,-40.821484 C -267.58413,-44.042309 -267.18055,-47.329583 -268.71345,-51.071298"
                 id="path2783"
                 style="fill:none;fill-opacity:1;fill-rule:evenodd;stroke:#000000;stroke-width:1.1092509px;stroke-linecap:butt;stroke-linejoin:miter;stroke-opacity:1" />
              <path
                 d="M -264.9581,-26.86784 C -270.21643,-31.155397 -275.36054,-30.577479 -280.51989,-30.648451 C -279.5072,-35.431402 -278.91499,-40.313671 -281.19886,-45.875108"
                 id="path2785"
                 style="fill:none;fill-opacity:1;fill-rule:evenodd;stroke:#000000;stroke-width:1.10925043px;stroke-linecap:butt;stroke-linejoin:miter;stroke-opacity:1;display:inline" />
            </g>
            <g
               transform="matrix(0.802247,8.069268e-2,-8.16074e-2,0.831256,321.9808,163.9054)"
               id="g2797"
               style="display:inline">
              <path
                 d="M -252.46588,-53.832954 C -258.39999,-61.216148 -269.52176,-64.89385 -273.66312,-51.593268 C -294.80754,-58.469482 -288.53214,-40.561191 -294.73007,-17.888488 C -276.37971,-21.306526 -253.51475,-10.779668 -258.9591,-33.916927 C -246.52059,-35.103113 -247.21763,-47.303102 -252.46588,-53.832954 z"
                 id="path2799"
                 style="fill:#ffffff;fill-opacity:1;fill-rule:evenodd;stroke:#000000;stroke-width:2.77312779;stroke-linecap:butt;stroke-linejoin:miter;marker:none;marker-start:none;marker-mid:none;marker-end:none;stroke-miterlimit:4;stroke-dasharray:none;stroke-dashoffset:0;stroke-opacity:1;visibility:visible;display:inline;overflow:visible" />
              <path
                 d="M -295.82676,-17.477699 L -260.03608,-47.428073"
                 id="path2801"
                 style="fill:none;fill-opacity:1;fill-rule:evenodd;stroke:#000000;stroke-width:1.10925114px;stroke-linecap:butt;stroke-linejoin:miter;stroke-opacity:1" />
              <path
                 d="M -257.79303,-38.291421 C -261.33057,-41.172702 -264.79589,-40.778684 -268.27083,-40.821484 C -267.58413,-44.042309 -267.18055,-47.329583 -268.71345,-51.071298"
                 id="path2803"
                 style="fill:none;fill-opacity:1;fill-rule:evenodd;stroke:#000000;stroke-width:1.1092509px;stroke-linecap:butt;stroke-linejoin:miter;stroke-opacity:1" />
              <path
                 d="M -264.9581,-26.86784 C -270.21643,-31.155397 -275.36054,-30.577479 -280.51989,-30.648451 C -279.5072,-35.431402 -278.91499,-40.313671 -281.19886,-45.875108"
                 id="path2805"
                 style="fill:none;fill-opacity:1;fill-rule:evenodd;stroke:#000000;stroke-width:1.10925043px;stroke-linecap:butt;stroke-linejoin:miter;stroke-opacity:1;display:inline" />
            </g>
          </g>
          <use
             transform="matrix(0.855823,-0.517268,0.517268,0.855823,-68.6747,120.9196)"
             id="use2930"
             x="0"
             y="0"
             width="375"
             height="375"
             xlink:href="#g2807" />
          <use
             transform="matrix(0.525187,-0.850987,0.850987,0.525187,-69.86179,249.492)"
             id="use2934"
             x="0"
             y="0"
             width="375"
             height="375"
             xlink:href="#g2807" />
          <use
             transform="matrix(-4.947381e-2,-0.998776,0.998776,-4.947381e-2,6.058857,376.6062)"
             id="use2936"
             x="0"
             y="0"
             width="375"
             height="375"
             xlink:href="#g2807" />
          <use
             transform="matrix(-0.483991,-0.875073,0.875073,-0.483991,113.2989,442.0469)"
             id="use2938"
             x="0"
             y="0"
             width="375"
             height="375"
             xlink:href="#g2807" />
          <g
             transform="matrix(-0.777191,-0.214677,0.220464,-0.805633,-34.2926,226.3583)"
             id="g2946"
             style="display:inline">
            <path
               d="M -252.46588,-53.832954 C -258.39999,-61.216148 -269.52176,-64.89385 -273.66312,-51.593268 C -294.80754,-58.469482 -288.53214,-40.561191 -294.73007,-17.888488 C -276.37971,-21.306526 -253.51475,-10.779668 -258.9591,-33.916927 C -246.52059,-35.103113 -247.21763,-47.303102 -252.46588,-53.832954 z"
               id="path2948"
               style="fill:#ffffff;fill-opacity:1;fill-rule:evenodd;stroke:#000000;stroke-width:2.77312779;stroke-linecap:butt;stroke-linejoin:miter;marker:none;marker-start:none;marker-mid:none;marker-end:none;stroke-miterlimit:4;stroke-dasharray:none;stroke-dashoffset:0;stroke-opacity:1;visibility:visible;display:inline;overflow:visible" />
            <path
               d="M -295.82676,-17.477699 L -260.03608,-47.428073"
               id="path2950"
               style="fill:none;fill-opacity:1;fill-rule:evenodd;stroke:#000000;stroke-width:1.10925114px;stroke-linecap:butt;stroke-linejoin:miter;stroke-opacity:1" />
            <path
               d="M -257.79303,-38.291421 C -261.33057,-41.172702 -264.79589,-40.778684 -268.27083,-40.821484 C -267.58413,-44.042309 -267.18055,-47.329583 -268.71345,-51.071298"
               id="path2952"
               style="fill:none;fill-opacity:1;fill-rule:evenodd;stroke:#000000;stroke-width:1.1092509px;stroke-linecap:butt;stroke-linejoin:miter;stroke-opacity:1" />
            <path
               d="M -264.9581,-26.86784 C -270.21643,-31.155397 -275.36054,-30.577479 -280.51989,-30.648451 C -279.5072,-35.431402 -278.91499,-40.313671 -281.19886,-45.875108"
               id="path2954"
               style="fill:none;fill-opacity:1;fill-rule:evenodd;stroke:#000000;stroke-width:1.10925043px;stroke-linecap:butt;stroke-linejoin:miter;stroke-opacity:1;display:inline" />
          </g>
          <g
             transform="matrix(-0.158372,-0.623601,0.610572,-0.10102,154.5966,120.1986)"
             id="g2958"
             style="display:inline">
            <path
               d="M -252.46588,-53.832954 C -258.39999,-61.216148 -269.52176,-64.89385 -273.66312,-51.593268 C -294.80754,-58.469482 -288.53214,-40.561191 -294.73007,-17.888488 C -276.37971,-21.306526 -253.51475,-10.779668 -258.9591,-33.916927 C -246.52059,-35.103113 -247.21763,-47.303102 -252.46588,-53.832954 z"
               id="path2960"
               style="fill:#ffffff;fill-opacity:1;fill-rule:evenodd;stroke:#000000;stroke-width:3.61298156;stroke-linecap:butt;stroke-linejoin:miter;marker:none;marker-start:none;marker-mid:none;marker-end:none;stroke-miterlimit:4;stroke-dasharray:none;stroke-dashoffset:0;stroke-opacity:1;visibility:visible;display:inline;overflow:visible" />
            <path
               d="M -295.82676,-17.477699 L -260.03608,-47.428073"
               id="path2962"
               style="fill:none;fill-opacity:1;fill-rule:evenodd;stroke:#000000;stroke-width:1.44519293px;stroke-linecap:butt;stroke-linejoin:miter;stroke-opacity:1" />
            <path
               d="M -257.79303,-38.291421 C -261.33057,-41.172702 -264.79589,-40.778684 -268.27083,-40.821484 C -267.58413,-44.042309 -267.18055,-47.329583 -268.71345,-51.071298"
               id="path2964"
               style="fill:none;fill-opacity:1;fill-rule:evenodd;stroke:#000000;stroke-width:1.44519222px;stroke-linecap:butt;stroke-linejoin:miter;stroke-opacity:1" />
            <path
               d="M -264.9581,-26.86784 C -270.21643,-31.155397 -275.36054,-30.577479 -280.51989,-30.648451 C -279.5072,-35.431402 -278.91499,-40.313671 -281.19886,-45.875108"
               id="path2966"
               style="fill:none;fill-opacity:1;fill-rule:evenodd;stroke:#000000;stroke-width:1.44519162px;stroke-linecap:butt;stroke-linejoin:miter;stroke-opacity:1;display:inline" />
          </g>
        </g>
        <use
           transform="matrix(-1,0,0,1,375.4321,0.5)"
           id="use3198"
           x="0"
           y="0"
           width="375"
           height="375"
           xlink:href="#g3041" />
        <path
           d="M 199.82437,334.90572 C 176.59922,332.45293 169.1869,323.37443 174.23769,309.01175 C 180.03991,292.51239 193.90797,284.6197 171.40429,275.36629 C 197.70105,274.72897 204.26001,286.52571 197.10901,300.8806 C 182.37141,330.46476 194.01187,325.45971 199.82437,334.90572 z"
           id="path4584"
           style="fill:#ffffff;fill-opacity:1;fill-rule:evenodd;stroke:#000000;stroke-width:1.8206054;stroke-linecap:butt;stroke-linejoin:miter;stroke-miterlimit:4;stroke-dasharray:none;stroke-opacity:1;display:inline" />
        <path
           d="M 305.2302,98.347329 C 318.74873,89.640421 331.92937,86.042484 335.04446,54.723506 C 319.31271,78.470285 302.81262,75.582097 283.21983,92.765554"
           id="path3375"
           style="fill:#ffffff;fill-opacity:1;fill-rule:nonzero;stroke:#000000;stroke-width:1.82060635;stroke-linecap:butt;stroke-linejoin:miter;marker:none;marker-start:none;marker-mid:none;marker-end:none;stroke-miterlimit:4;stroke-dasharray:none;stroke-dashoffset:0;stroke-opacity:1;visibility:visible;display:inline;overflow:visible" />
        <path
           d="M 298.58246,109.30884 C 311.01489,101.30146 324.75573,108.36886 331.87304,81.296787 C 317.61227,93.326015 303.11556,87.588811 289.45293,100.21759"
           id="path3377"
           style="fill:#ffffff;fill-opacity:1;fill-rule:nonzero;stroke:#000000;stroke-width:1.82060659;stroke-linecap:butt;stroke-linejoin:miter;marker:none;marker-start:none;marker-mid:none;marker-end:none;stroke-miterlimit:4;stroke-dasharray:none;stroke-dashoffset:0;stroke-opacity:1;visibility:visible;display:inline;overflow:visible" />
        <path
           d="M 275.08241,69.985977 C 283.84829,56.249498 287.43826,42.877159 319.16306,39.587054 C 295.1655,55.630413 298.16257,72.339007 280.83258,92.267115"
           id="path3379"
           style="fill:#ffffff;fill-opacity:1;fill-rule:nonzero;stroke:#000000;stroke-width:1.82060635;stroke-linecap:butt;stroke-linejoin:miter;marker:none;marker-start:none;marker-mid:none;marker-end:none;stroke-miterlimit:4;stroke-dasharray:none;stroke-dashoffset:0;stroke-opacity:1;visibility:visible;display:inline;overflow:visible" />
        <path
           d="M 322.02194,51.750558 C 278.27691,62.048948 288.15183,76.989893 262.12639,111.89825 C 298.41873,85.82082 309.81802,97.63663 322.02194,51.750558 z"
           id="path3381"
           style="fill:#ffffff;fill-opacity:1;fill-rule:nonzero;stroke:#000000;stroke-width:1.8206073;stroke-linecap:butt;stroke-linejoin:miter;marker:none;marker-start:none;marker-mid:none;marker-end:none;stroke-miterlimit:4;stroke-dasharray:none;stroke-dashoffset:0;stroke-opacity:1;visibility:visible;display:inline;overflow:visible" />
        <path
           d="M 264.22429,76.999296 C 272.17937,64.53333 265.05432,50.82231 292.09625,43.59132 C 280.12704,57.902511 285.92509,72.374995 273.35382,86.090555"
           id="path3383"
           style="fill:#ffffff;fill-opacity:1;fill-rule:nonzero;stroke:#000000;stroke-width:1.82060659;stroke-linecap:butt;stroke-linejoin:miter;marker:none;marker-start:none;marker-mid:none;marker-end:none;stroke-miterlimit:4;stroke-dasharray:none;stroke-dashoffset:0;stroke-opacity:1;visibility:visible;display:inline;overflow:visible" />
        <path
           d="M 264.62866,73.578657 C 273.79008,88.624622 286.73308,99.87311 300.99729,109.79483 L 296.66381,126.26953 C 289.824,131.46746 277.41024,129.60933 265.27741,127.16275 C 252.77998,128.53114 244.65757,124.62704 246.61352,108.57711 C 244.68051,96.700048 241.76803,83.4875 248.71653,77.434792 L 264.62866,73.578657 z"
           id="path3385"
           style="fill:#ffffff;fill-opacity:1;fill-rule:nonzero;stroke:#000000;stroke-width:1.82060719;stroke-linecap:butt;stroke-linejoin:miter;marker:none;marker-start:none;marker-mid:none;marker-end:none;stroke-miterlimit:4;stroke-dashoffset:0;stroke-opacity:1;visibility:visible;display:inline;overflow:visible" />
        <path
           d="M 249.90157,75.864438 C 263.54107,94.594231 279.11173,111.38474 298.54122,124.30019"
           id="path3395"
           style="fill:#ffffff;fill-opacity:1;fill-rule:evenodd;stroke:#000000;stroke-width:0.91030377px;stroke-linecap:butt;stroke-linejoin:miter;stroke-opacity:1" />
        <path
           d="M 53.418863,31.535353 L 30.993424,31.662852 L 29.605144,55.542984 L 265.79266,284.83013 L 285.50866,299.78601 C 299.00642,325.42832 316.71275,334.77894 338.38299,352.18222 L 354.11228,336.32485 C 335.40331,315.93618 327.67973,296.52152 301.23795,283.92864 L 286.2073,264.41548 L 53.418863,31.535353 z"
           id="path3399"
           style="fill:#ffffff;fill-opacity:1;fill-rule:nonzero;stroke:#000000;stroke-width:1.82060719;stroke-linecap:butt;stroke-linejoin:miter;marker:none;marker-start:none;marker-mid:none;marker-end:none;stroke-miterlimit:4;stroke-dashoffset:0;stroke-opacity:1;visibility:visible;display:inline;overflow:visible" />
        <path
           d="M 31.247199,31.916991 L 291.67372,290.17129"
           id="path3401"
           style="fill:none;fill-opacity:0.75;fill-rule:evenodd;stroke:#000000;stroke-width:0.91030401px;stroke-linecap:butt;stroke-linejoin:miter;stroke-opacity:1" />
        <path
           d="M 316.45323,292.51754 L 302.76681,323.4069"
           id="path3403"
           style="fill:none;fill-opacity:0.75;fill-rule:evenodd;stroke:#000000;stroke-width:0.91030377px;stroke-linecap:butt;stroke-linejoin:miter;stroke-opacity:1" />
        <path
           d="M 343.44122,321.7117 L 332.68011,347.15599"
           id="path3405"
           style="fill:none;fill-opacity:0.75;fill-rule:evenodd;stroke:#000000;stroke-width:0.91030377px;stroke-linecap:butt;stroke-linejoin:miter;stroke-opacity:1;display:inline" />
        <path
           d="M 325.24711,302.45268 L 312.77335,332.11951"
           id="path3407"
           style="fill:none;fill-opacity:0.75;fill-rule:evenodd;stroke:#000000;stroke-width:0.91030377px;stroke-linecap:butt;stroke-linejoin:miter;stroke-opacity:1;display:inline" />
        <path
           d="M 334.64733,311.77656 L 322.17357,341.44338"
           id="path3409"
           style="fill:none;fill-opacity:0.75;fill-rule:evenodd;stroke:#000000;stroke-width:0.91030377px;stroke-linecap:butt;stroke-linejoin:miter;stroke-opacity:1;display:inline" />
        <rect
           width="83.801788"
           height="8.4254808"
           x="-41.285641"
           y="416.129"
           transform="matrix(-0.704234,0.709968,0.709984,0.704218,0,0)"
           id="rect3411"
           style="fill:#ffffff;fill-opacity:1;fill-rule:nonzero;stroke:#000000;stroke-width:1.82060719;stroke-linecap:butt;stroke-linejoin:miter;marker:none;marker-start:none;marker-mid:none;marker-end:none;stroke-miterlimit:4;stroke-dasharray:none;stroke-dashoffset:0;stroke-opacity:1;visibility:visible;display:inline;overflow:visible" />
        <path
           d="M 42.004034,319.66056 C 45.385681,325.87045 50.244865,330.59658 56.412577,334.0087 C 59.289201,337.239 51.300425,346.24711 47.11463,343.34579 C 41.023914,341.2008 35.140277,336.15898 32.706087,328.99765 C 29.28963,325.64705 38.447073,316.32739 42.004034,319.66056 z"
           id="path3355"
           style="fill:#ffffff;fill-opacity:1;fill-rule:nonzero;stroke:#000000;stroke-width:1.82060683;stroke-linecap:butt;stroke-linejoin:miter;marker:none;marker-start:none;marker-mid:none;marker-end:none;stroke-miterlimit:4;stroke-dashoffset:0;stroke-opacity:1;visibility:visible;display:inline;overflow:visible" />
        <path
           d="M 275.09792,87.047679 L 287.3893,99.287529 L 55.479972,331.75342 L 43.188596,319.51357 L 275.09792,87.047679 z"
           id="path3357"
           style="fill:#ffffff;fill-opacity:1;fill-rule:nonzero;stroke:#000000;stroke-width:1.82060778;stroke-linecap:butt;stroke-linejoin:miter;marker:none;marker-start:none;marker-mid:none;marker-end:none;stroke-miterlimit:4;stroke-dashoffset:0;stroke-opacity:1;visibility:visible;display:inline;overflow:visible" />
        <path
           d="M 53.448471,303.5491 C 57.65952,312.02923 64.098887,318.27165 72.511658,322.53238 C 76.283729,326.8402 64.144412,340.33475 58.489177,336.61389 C 50.06809,334.14027 42.208146,327.54566 39.42599,317.63061 C 34.901084,313.20241 48.723114,299.15857 53.448471,303.5491 z"
           id="path3359"
           style="fill:#ffffff;fill-opacity:1;fill-rule:nonzero;stroke:#000000;stroke-width:1.82060754;stroke-linecap:butt;stroke-linejoin:miter;marker:none;marker-start:none;marker-mid:none;marker-end:none;stroke-miterlimit:4;stroke-dashoffset:0;stroke-opacity:1;visibility:visible;display:inline;overflow:visible" />
        <g
           transform="matrix(0.772886,0.769646,-0.769646,0.772886,651.2125,404.8786)"
           id="g3361"
           style="fill:#ffffff;fill-opacity:1">
          <path
             d="M -451.2477,288.87972 C -445.04676,290.11221 -438.84582,290.06335 -432.64487,288.87972 C -428.69476,289.03831 -428.05845,296.39375 -432.64487,296.94309 C -437.97792,298.64291 -445.04676,298.99724 -451.2477,296.94309 C -455.62542,296.96544 -455.70525,288.97029 -451.2477,288.87972 z"
             id="path3363"
             style="fill:#ffffff;fill-opacity:1;fill-rule:nonzero;stroke:#000000;stroke-width:1.66915262;stroke-linecap:butt;stroke-linejoin:miter;marker:none;marker-start:none;marker-mid:none;marker-end:none;stroke-miterlimit:4;stroke-dashoffset:0;stroke-opacity:1;visibility:visible;display:inline;overflow:visible" />
          <path
             d="M -451.2477,280.53301 C -445.04676,281.76549 -438.84582,281.71663 -432.64487,280.53301 C -428.69476,280.69159 -428.05845,288.04703 -432.64487,288.59638 C -437.97792,290.2962 -445.04676,290.65052 -451.2477,288.59638 C -455.62542,288.61873 -455.70525,280.62357 -451.2477,280.53301 z"
             id="path3365"
             style="fill:#ffffff;fill-opacity:1;fill-rule:nonzero;stroke:#000000;stroke-width:1.66915262;stroke-linecap:butt;stroke-linejoin:miter;marker:none;marker-start:none;marker-mid:none;marker-end:none;stroke-miterlimit:4;stroke-dashoffset:0;stroke-opacity:1;visibility:visible;display:inline;overflow:visible" />
          <path
             d="M -451.2477,255.49288 C -445.04676,256.72537 -438.84582,256.67651 -432.64487,255.49288 C -428.69476,255.65147 -428.05845,263.00691 -432.64487,263.55626 C -437.97792,265.25608 -445.04676,265.6104 -451.2477,263.55626 C -455.62542,263.5786 -455.70525,255.58345 -451.2477,255.49288 z"
             id="path3367"
             style="fill:#ffffff;fill-opacity:1;fill-rule:nonzero;stroke:#000000;stroke-width:1.66915262;stroke-linecap:butt;stroke-linejoin:miter;marker:none;marker-start:none;marker-mid:none;marker-end:none;stroke-miterlimit:4;stroke-dashoffset:0;stroke-opacity:1;visibility:visible;display:inline;overflow:visible" />
          <path
             d="M -451.2477,263.83959 C -445.04676,265.07207 -438.84582,265.02321 -432.64487,263.83959 C -428.69476,263.99818 -428.05845,271.35362 -432.64487,271.90296 C -437.97792,273.60278 -445.04676,273.9571 -451.2477,271.90296 C -455.62542,271.92531 -455.70525,263.93016 -451.2477,263.83959 z"
             id="path3369"
             style="fill:#ffffff;fill-opacity:1;fill-rule:nonzero;stroke:#000000;stroke-width:1.66915262;stroke-linecap:butt;stroke-linejoin:miter;marker:none;marker-start:none;marker-mid:none;marker-end:none;stroke-miterlimit:4;stroke-dashoffset:0;stroke-opacity:1;visibility:visible;display:inline;overflow:visible" />
          <path
             d="M -451.2477,272.1863 C -445.04676,273.41879 -438.84582,273.36993 -432.64487,272.1863 C -428.69476,272.34489 -428.05845,279.70033 -432.64487,280.24968 C -437.97792,281.94949 -445.04676,282.30382 -451.2477,280.24968 C -455.62542,280.27202 -455.70525,272.27687 -451.2477,272.1863 z"
             id="path3371"
             style="fill:#ffffff;fill-opacity:1;fill-rule:nonzero;stroke:#000000;stroke-width:1.66915262;stroke-linecap:butt;stroke-linejoin:miter;marker:none;marker-start:none;marker-mid:none;marker-end:none;stroke-miterlimit:4;stroke-dashoffset:0;stroke-opacity:1;visibility:visible;display:inline;overflow:visible" />
          <path
             d="M -451.2477,247.14617 C -445.04676,248.37865 -438.84582,248.3298 -432.64487,247.14617 C -428.69476,247.30476 -428.05845,254.6602 -432.64487,255.20954 C -437.97792,256.90936 -445.04676,257.26369 -451.2477,255.20954 C -455.62542,255.23189 -455.70525,247.23674 -451.2477,247.14617 z"
             id="path3373"
             style="fill:#ffffff;fill-opacity:1;fill-rule:nonzero;stroke:#000000;stroke-width:1.66915262;stroke-linecap:butt;stroke-linejoin:miter;marker:none;marker-start:none;marker-mid:none;marker-end:none;stroke-miterlimit:4;stroke-dashoffset:0;stroke-opacity:1;visibility:visible;display:inline;overflow:visible" />
        </g>
        <path
           d="M 230.43676,128.76954 C 234.75905,134.71444 239.93423,139.80288 245.86472,144.13283 C 249.03512,147.50106 244.667,152.94299 240.49769,149.52245 C 234.9434,146.25429 228.84512,140.65327 225.06972,134.15917 C 221.42425,130.55873 226.67967,125.14878 230.43676,128.76954 z"
           id="path3387"
           style="fill:#ffffff;fill-opacity:1;fill-rule:nonzero;stroke:#000000;stroke-width:1.82060611;stroke-linecap:butt;stroke-linejoin:miter;marker:none;marker-start:none;marker-mid:none;marker-end:none;stroke-miterlimit:4;stroke-dashoffset:0;stroke-opacity:1;visibility:visible;display:inline;overflow:visible" />
        <path
           d="M 242.00554,116.08786 C 246.62772,122.44521 252.16194,127.88668 258.5039,132.51705 C 261.89426,136.11897 257.22309,141.93848 252.76449,138.28062 C 246.82485,134.78569 240.30347,128.79608 236.26614,121.85142 C 232.36775,118.00118 237.98778,112.21588 242.00554,116.08786 z"
           id="path3393"
           style="fill:#ffffff;fill-opacity:1;fill-rule:nonzero;stroke:#000000;stroke-width:1.82060671;stroke-linecap:butt;stroke-linejoin:miter;marker:none;marker-start:none;marker-mid:none;marker-end:none;stroke-miterlimit:4;stroke-dashoffset:0;stroke-opacity:1;visibility:visible;display:inline;overflow:visible" />
        <path
           d="M 236.3305,122.31886 C 240.7743,128.49857 246.13013,133.7624 252.29368,138.21512 C 255.57041,141.70386 250.88092,147.50514 246.55428,143.97868 C 240.76806,140.63656 234.45005,134.84944 230.5911,128.08242 C 226.81866,124.35761 232.44101,118.57459 236.3305,122.31886 z"
           id="path3389"
           style="fill:#ffffff;fill-opacity:1;fill-rule:nonzero;stroke:#000000;stroke-width:1.82060719;stroke-linecap:butt;stroke-linejoin:miter;marker:none;marker-start:none;marker-mid:none;marker-end:none;stroke-miterlimit:4;stroke-dashoffset:0;stroke-opacity:1;visibility:visible;display:inline;overflow:visible" />
        <path
           d="M 247.54752,109.7244 C 252.4373,116.34822 258.23912,122.05616 264.84866,126.95302 C 268.40949,130.72469 263.76578,136.57153 259.10927,132.71657 C 252.93947,128.99248 246.11306,122.69909 241.80812,115.48796 C 237.7208,111.44959 243.3374,105.66086 247.54752,109.7244 z"
           id="path3391"
           style="fill:#ffffff;fill-opacity:1;fill-rule:nonzero;stroke:#000000;stroke-width:1.82060671;stroke-linecap:butt;stroke-linejoin:miter;marker:none;marker-start:none;marker-mid:none;marker-end:none;stroke-miterlimit:4;stroke-dashoffset:0;stroke-opacity:1;visibility:visible;display:inline;overflow:visible" />
      </g>
    </g>
  </g>
  <g
     transform="translate(-11.758933,-15.879258)"
     id="layer2"
     style="display:inline" />
</svg>
